<svg width="57" height="62" viewBox="0 0 57 62" fill="none" xmlns="http://www.w3.org/2000/svg">
  <path d="M56.5113 60.4792C55.1921 60.6861 53.9726 60.9527 52.7398 61.0599C45.3812 61.6972 38.8833 59.559 33.1924 54.894C30.5495 52.729 27.9869 50.4598 25.271 48.3946C21.5248 45.5477 17.2767 44.1451 12.5239 44.6483C9.9107 44.9253 7.49855 45.7948 5.3574 47.3508C5.23083 47.4432 5.10874 47.5399 4.9926 47.6457C4.09921 48.4586 3.97264 48.4765 2.89015 47.9226C1.5322 47.2272 0.647747 45.8336 0.418444 44.3461C0.247211 43.2308 0.400576 41.9161 1.1138 41.0033C1.85382 40.0563 3.26984 39.9551 4.34787 39.5977C4.34787 39.5977 5.78473 39.1212 7.58789 38.1102C13.9712 34.5322 17.0563 28.006 17.0563 28.006C18.1894 25.6489 18.9027 23.0298 19.1439 20.1233C19.7544 12.7529 16.9804 6.67037 11.5545 1.73142C11.2776 1.47979 11.0915 1.13285 10.8622 0.829102C12.7606 1.54083 14.9479 2.3702 17.3705 3.30974C25.143 6.32344 27.0563 7.25108 28.7016 9.32374C29.9405 10.8842 30.8398 12.869 30.9664 13.1504C31.8479 15.1203 32.1903 16.727 32.4062 17.7782C32.8351 19.8702 33.2728 22.0099 32.7993 24.7228C32.5358 26.2326 32.2707 27.7514 31.1451 29.2433C29.5519 31.3517 27.5536 32.3985 26.3416 32.936C22.4033 34.6826 15.1087 37.4863 5.55394 40.6251C5.55394 40.6251 3.08819 41.6465 2.17991 41.9831C1.93721 42.0739 2.23947 42.7499 2.49706 42.6457C3.73887 42.1379 4.99111 41.6733 6.25674 41.2609C6.25674 41.2609 6.25525 41.2609 6.25525 41.2594C6.20463 41.0778 19.0322 37.5563 23.377 36.2118C24.735 35.7919 26.1198 35.4643 27.509 35.1605C29.6382 34.6945 30.1534 34.699 30.4393 34.7094C31.8613 34.7675 32.9825 35.2543 34.2838 35.7948C35.2978 36.2162 35.7698 36.5245 36.5992 36.9637C37.1457 37.2526 39.7707 38.618 42.9095 39.3669C44.1439 39.6617 45.9321 39.9744 48.1656 39.9714C48.5096 39.9446 48.8535 39.9193 49.1975 39.8925L49.6397 40.8291C50.2993 42.1766 50.9589 43.6701 51.5828 45.305C52.1457 46.782 52.6072 48.1906 52.9884 49.5113C52.9854 49.5143 52.9825 49.5158 52.978 49.5188C53.3279 50.7948 53.4917 51.3979 53.4917 51.3979C53.3741 51.4187 49.1215 52.7082 45.8488 52.7112C41.3312 52.7141 37.573 50.43 33.7552 47.6233C31.8449 46.2177 29.9435 44.7853 27.9333 43.5301C21.8628 39.7436 15.3693 39.3505 8.67187 41.4783C6.54411 42.1543 4.51612 43.1445 2.44346 43.9917C2.3705 44.0215 2.27669 44.0393 2.235 44.0944C2.0727 44.3148 2.3705 44.8806 2.59087 44.7719C5.60754 43.2889 8.76716 42.26 12.0787 41.6734C18.4664 40.5417 24.0962 42.2302 29.1826 46.1239C31.6245 47.9926 34.0635 49.8881 36.6543 51.5349C39.2183 53.1638 41.9059 54.1957 44.7022 54.6037C48.3309 55.1323 51.3327 54.4637 52.4047 54.1927C53.1582 54.0036 53.7806 53.7981 54.2243 53.6388C54.7141 55.1367 54.9762 55.9423 54.9762 55.9423C55.0611 55.9214 55.1132 55.9095 55.1355 55.905C54.9643 55.9512 53.115 56.4038 52.4107 56.5498C52.4107 56.5498 51.0274 56.8342 49.3181 56.9563C46.7526 57.1379 39.9926 56.0465 34.458 51.8416C31.967 49.9491 29.537 47.9688 26.9878 46.1597C20.8249 41.7865 14.1647 41.2952 7.19033 43.889C5.97234 44.3416 4.80945 44.9461 3.64358 45.5298C3.29813 45.701 3.67187 46.3949 3.98604 46.2311C6.67514 44.8285 9.51612 43.9232 12.5268 43.5599C17.6013 42.9464 22.1591 44.3074 26.215 47.3196C28.7672 49.215 31.1868 51.2877 33.6927 53.2472C37.1739 55.9691 40.9842 57.9896 45.4155 58.6805C47.8023 59.0527 51.4161 58.9411 55.1043 58.2174C55.3157 58.1757 55.4884 58.1385 55.6046 58.1147C55.9068 58.8994 56.2091 59.69 56.5113 60.4792Z" fill="white" />
  <path d="M9.41797 3.62695C9.41797 3.62695 8.37717 4.65435 7.37657 5.70557C6.70653 6.40986 6.37151 6.76126 6.01416 7.18264C5.3054 8.02094 4.8185 8.72225 4.3867 9.3506C3.76133 10.2589 3.09277 11.3205 3.09277 11.3205C3.09277 11.3205 5.61809 11.0748 8.00046 11.4456C8.00046 11.4456 9.36734 11.6168 10.6657 12.135C15.088 13.8979 17.0624 18.0686 17.6654 19.5084C17.7354 17.7217 17.6014 14.6767 16.1258 11.3563C16.1258 11.3563 14.7589 8.3366 11.7512 5.37799C11.1497 4.78538 10.6583 4.42951 10.6583 4.42951C10.1371 4.0528 9.41946 3.62844 9.41797 3.62695Z" fill="#FF4756" />
  <path d="M2.01753 37.4641C2.25428 37.4254 2.60717 36.5677 2.65779 36.3473C2.75904 35.8977 2.72331 35.3884 2.7114 34.9328C2.7114 34.5993 4.47882 35.6356 4.60687 35.3706C4.67239 35.2336 3.10896 34.6469 2.04731 33.088C1.38174 32.1112 0.85017 30.6535 0.845703 30.6445C2.62206 32.2437 3.17745 32.5847 3.17745 32.5847C3.95767 33.0641 4.63516 33.2875 5.04463 33.4215C5.54791 33.5853 6.57977 33.9128 7.88859 33.892C9.59198 33.8637 10.9187 33.2592 11.6721 32.8318C11.3415 33.1654 10.8814 33.5972 10.2948 34.0573C10.1116 34.2017 9.30461 34.8286 8.02706 35.5284C6.81652 36.1925 5.76977 36.7672 4.29865 37.0874C4.29567 37.0874 4.20782 37.1052 2.01753 37.4641Z" fill="#FF4756" />
</svg>