<svg width="906" height="974" viewBox="0 0 906 974" fill="none" xmlns="http://www.w3.org/2000/svg">
<path d="M906 962.434C884.73 965.771 865.069 970.069 845.191 971.798C726.548 982.075 621.782 947.595 530.027 872.37C487.415 837.458 446.099 800.866 402.31 767.563C341.909 721.655 273.417 699.036 196.787 707.152C154.655 711.618 115.763 725.64 81.2413 750.732C79.2007 752.22 77.2321 753.781 75.3596 755.486C60.9554 768.596 58.9148 768.884 41.4618 759.952C19.5674 748.739 5.30727 726.265 1.6102 702.278C-1.1506 684.294 1.32212 663.092 12.8215 648.374C24.7529 633.103 47.5835 631.47 64.9646 625.708C64.9646 625.708 88.1313 618.024 117.204 601.721C220.122 544.023 269.864 438.784 269.864 438.784C288.133 400.775 299.633 358.54 303.522 311.672C313.365 192.819 268.64 94.7348 181.158 15.0913C176.693 11.0334 173.692 5.43896 169.995 0.540771C200.604 12.0179 235.87 25.3919 274.929 40.5426C400.246 89.1403 431.095 104.099 457.622 137.522C477.596 162.685 492.096 194.691 494.137 199.229C508.349 230.996 513.871 256.903 517.352 273.855C524.266 307.59 531.324 342.093 523.69 385.841C519.44 410.188 515.167 434.678 497.018 458.737C471.33 492.736 439.113 509.616 419.571 518.284C356.073 546.448 238.463 591.661 84.4102 642.275C84.4102 642.275 44.6547 658.746 30.0104 664.173C26.0973 665.638 30.9707 676.538 35.1239 674.858C55.1457 666.67 75.3356 659.179 95.7415 652.528C95.7415 652.528 95.7175 652.528 95.7175 652.504C94.9012 649.574 301.721 592.789 371.774 571.107C393.668 564.336 415.994 559.054 438.393 554.156C472.723 546.64 481.029 546.712 485.639 546.881C508.565 547.817 526.642 555.668 547.625 564.384C563.973 571.179 571.583 576.15 584.955 583.233C593.766 587.891 636.09 609.909 686.697 621.986C706.599 626.74 735.431 631.782 771.441 631.734C776.987 631.302 782.533 630.894 788.078 630.462L795.208 645.565C805.843 667.294 816.478 691.377 826.537 717.741C835.612 741.559 843.054 764.274 849.2 785.571C849.152 785.619 849.104 785.643 849.032 785.691C854.674 806.268 857.314 815.993 857.314 815.993C855.418 816.329 786.854 837.122 734.087 837.17C661.249 837.218 600.656 800.386 539.102 755.125C508.301 732.459 477.644 709.361 445.235 689.12C347.358 628.061 242.664 621.722 134.681 656.033C100.375 666.934 67.6774 682.901 34.2597 696.563C33.0833 697.044 31.5709 697.332 30.8987 698.22C28.2819 701.774 33.0833 710.898 36.6364 709.145C85.2745 685.23 136.217 668.639 189.609 659.179C292.599 640.931 383.369 668.159 465.377 730.947C504.748 761.08 544.071 791.646 585.844 818.202C627.184 844.469 670.516 861.109 715.601 867.688C774.106 876.212 822.504 865.431 839.789 861.061C851.937 858.011 861.972 854.698 869.126 852.129C877.024 876.284 881.249 889.273 881.249 889.273C882.618 888.937 883.458 888.745 883.818 888.673C881.057 889.417 851.241 896.717 839.885 899.07C839.885 899.07 817.583 903.656 790.023 905.625C748.659 908.554 639.667 890.954 550.433 823.148C510.27 792.63 471.09 760.696 429.99 731.523C330.626 661.004 223.242 653.08 110.794 694.907C91.1562 702.206 72.4067 711.954 53.6093 721.366C48.0397 724.128 54.0654 735.317 59.1309 732.675C102.487 710.057 148.293 695.459 196.835 689.6C278.651 679.708 352.136 701.654 417.531 750.227C458.679 780.793 497.69 814.216 538.094 845.814C594.222 889.706 655.656 922.288 727.101 933.429C765.584 939.432 823.849 937.631 883.314 925.962C886.723 925.289 889.508 924.689 891.38 924.305C896.254 936.959 901.127 949.708 906 962.434Z" fill="#00235A"/>
<path d="M146.708 45.6572C146.708 45.6572 129.927 62.2246 113.795 79.1762C102.991 90.5333 97.5899 96.1998 91.8282 102.995C80.4009 116.513 72.5506 127.822 65.5886 137.954C55.5057 152.601 44.7266 169.721 44.7266 169.721C44.7266 169.721 85.4424 165.759 123.854 171.738C123.854 171.738 145.892 174.499 166.826 182.854C238.127 211.283 269.96 278.537 279.683 301.756C280.811 272.943 278.65 223.841 254.86 170.297C254.86 170.297 232.821 121.603 184.327 73.8938C174.628 64.3376 166.706 58.599 166.706 58.599C158.304 52.5243 146.732 45.6812 146.708 45.6572Z" fill="#FF4756"/>
<path d="M27.3935 591.302C31.2106 590.678 36.9002 576.848 37.7165 573.294C39.349 566.043 38.7728 557.831 38.5807 550.484C38.5807 545.105 67.077 561.817 69.1416 557.543C70.1979 555.334 44.9906 545.874 27.8736 520.735C17.1425 504.984 8.57202 481.477 8.5 481.333C37.1403 507.121 46.0949 512.619 46.0949 512.619C58.6746 520.35 69.5977 523.952 76.1997 526.113C84.314 528.754 100.951 534.037 122.053 533.7C149.517 533.244 170.907 523.496 183.055 516.605C177.725 521.983 170.307 528.946 160.848 536.366C157.895 538.695 144.884 548.803 124.286 560.088C104.768 570.797 87.8911 580.065 64.1722 585.227C64.1242 585.227 62.7077 585.516 27.3935 591.302Z" fill="#FF4756"/>
</svg>
